<svg width="512" height="512" viewBox="0 0 512 512" xmlns="http://www.w3.org/2000/svg">
  <rect width="512" height="512" rx="120" fill="#F4F4F4"/>

  <!-- Parents (abstract roof/arms) -->
  <path d="M140 240 Q256 120 372 240" stroke="#FF8A80" stroke-width="24" fill="none" stroke-linecap="round"/>
  <path d="M140 240 Q256 120 372 240" stroke="#4DB6AC" stroke-width="24" fill="none" stroke-linecap="round" stroke-dasharray="0 999"/>

  <!-- Heart -->
  <path d="M256 150 
           C240 120, 190 120, 190 160 
           C190 200, 256 240, 256 240 
           C256 240, 322 200, 322 160 
           C322 120, 272 120, 256 150 Z" 
        fill="#FF6F61"/>

  <!-- Children -->
  <circle cx="210" cy="300" r="40" fill="#9575CD"/>
  <circle cx="300" cy="300" r="40" fill="#FFB74D"/>

  <!-- Bottom arc (support) -->
  <path d="M150 350 Q256 420 362 350" stroke="#2F3B52" stroke-width="28" fill="none" stroke-linecap="round"/>

  <!-- Minimal house window -->
  <rect x="236" y="250" width="16" height="16" fill="#2F3B52"/>
  <rect x="260" y="250" width="16" height="16" fill="#2F3B52"/>
  <rect x="236" y="274" width="16" height="16" fill="#2F3B52"/>
  <rect x="260" y="274" width="16" height="16" fill="#2F3B52"/>
</svg>
