<?xml version="1.0" encoding="UTF-8"?>
<svg id="Layer_1" xmlns="http://www.w3.org/2000/svg" version="1.1" viewBox="0 0 512 512">
  <!-- Generator: Adobe Illustrator 30.3.0, SVG Export Plug-In . SVG Version: 2.1.3 Build 182)  -->
  <defs>
    <style>
      .st0 {
        fill: #222d46;
      }

      .st1 {
        fill: #63c2b5;
      }

      .st2 {
        fill: #11213c;
      }

      .st3 {
        fill: #0e1a36;
      }

      .st4 {
        fill: #24374d;
      }

      .st5 {
        fill: #77c7be;
      }

      .st6 {
        fill: #0f2544;
      }

      .st7 {
        fill: #f06864;
      }

      .st8 {
        fill: #213253;
      }

      .st9 {
        fill: #f99395;
      }

      .st10 {
        fill: #c4a8e1;
      }

      .st11 {
        fill: #72c3ba;
      }

      .st12 {
        fill: #b798d4;
      }

      .st13 {
        fill: #2b3a54;
      }

      .st14 {
        fill: #2f3d59;
      }

      .st15 {
        fill: #0d1c3d;
      }

      .st16 {
        fill: #b596d2;
      }

      .st17 {
        fill: #202f4d;
      }

      .st18 {
        fill: #1f334f;
      }

      .st19 {
        fill: #27344f;
      }

      .st20 {
        fill: #fdf9f6;
      }

      .st21 {
        fill: #f7f6f6;
      }

      .st22 {
        fill: #74c7c1;
      }

      .st23 {
        fill: #283652;
      }

      .st24 {
        fill: #20304a;
      }

      .st25 {
        fill: #1e314b;
      }

      .st26 {
        fill: #fa9897;
      }

      .st27 {
        fill: #60bfb3;
      }

      .st28 {
        fill: #fcae3c;
      }

      .st29 {
        fill: #25334e;
      }

      .st30 {
        fill: #71c2b9;
      }

      .st31 {
        fill: #b394d1;
      }

      .st32 {
        fill: #5bbbae;
      }

      .st33 {
        fill: #c4aae2;
      }

      .st34 {
        fill: #63c1b7;
      }

      .st35 {
        fill: #70c2ba;
      }

      .st36 {
        fill: #2e3b57;
      }

      .st37 {
        fill: #f4766f;
      }

      .st38 {
        fill: #0f1f41;
      }

      .st39 {
        fill: #112342;
      }

      .st40 {
        fill: #fa9291;
      }

      .st41 {
        fill: #f89793;
      }

      .st42 {
        fill: #293650;
      }

      .st43 {
        fill: #b495d2;
      }

      .st44 {
        fill: #f99b9a;
      }

      .st45 {
        fill: #6fc2b9;
      }

      .st46 {
        fill: #0e1b36;
      }

      .st47 {
        fill: #182948;
      }

      .st48 {
        fill: #f99a9a;
      }

      .st49 {
        fill: #f27c75;
      }

      .st50 {
        fill: #63c1b5;
      }

      .st51 {
        fill: #2d3b56;
      }

      .st52 {
        fill: #f16c67;
      }

      .st53 {
        fill: #fff;
        font-family: Arial-Black, 'Arial Black';
        font-size: 52px;
        font-weight: 800;
        isolation: isolate;
        letter-spacing: .04em;
        opacity: .92;
      }

      .st54 {
        fill: #2a3751;
      }

      .st55 {
        fill: #f98f90;
      }

      .st56 {
        fill: #fa9a9b;
      }

      .st57 {
        fill: #1d3450;
      }

      .st58 {
        fill: #76c7bd;
      }

      .st59 {
        fill: #273b5b;
      }

      .st60 {
        fill: #2a3854;
      }

      .st61 {
        fill: #66c2b7;
      }

      .st62 {
        fill: #0d1f39;
      }

      .st63 {
        fill: #fcbc33;
      }

      .st64 {
        fill: #ea9f99;
      }

      .st65 {
        fill: #6dc4ba;
      }

      .st66 {
        fill: #63c2b7;
      }

      .st67 {
        fill: #fb9a9b;
      }

      .st68 {
        fill: #64c0b6;
      }

      .st69 {
        fill: #344260;
      }

      .st70 {
        fill: #22324f;
      }

      .st71 {
        fill: #fcb649;
      }

      .st72 {
        fill: #fcb546;
      }

      .st73 {
        fill: #f9f9f9;
      }

      .st74 {
        fill: #fcb342;
      }

      .st75 {
        fill: #b091cf;
      }

      .st76 {
        fill: #67c0b6;
      }

      .st77 {
        fill: #81cdc2;
      }

      .st78 {
        fill: #263a52;
      }

      .st79 {
        fill: #1f2f4c;
      }

      .st80 {
        fill: #f4756f;
      }

      .st81 {
        fill: #1f3653;
      }

      .st82 {
        fill: #bfa0dc;
      }

      .st83 {
        fill: #ab86cc;
      }

      .st84 {
        fill: #263653;
      }

      .st85 {
        fill: #354360;
      }

      .st86 {
        fill: #6bc3b6;
      }

      .st87 {
        fill: #68c1b7;
      }

      .st88 {
        fill: #6bc6bc;
      }

      .st89 {
        fill: #68c4ba;
      }

      .st90 {
        fill: #fbb54f;
      }

      .st91 {
        fill: #c3a8e0;
      }

      .st92 {
        fill: #65c1b8;
      }

      .st93 {
        fill: #25364e;
      }

      .st94 {
        fill: #fbb348;
      }

      .st95 {
        fill: #fdf9f5;
      }

      .st96 {
        fill: #77cac1;
      }

      .st97 {
        fill: #233754;
      }

      .st98 {
        fill: #b18fd0;
      }

      .st99 {
        fill: #63c1b6;
      }

      .st100 {
        fill: #ba99d6;
      }

      .st101 {
        fill: #f3746f;
      }

      .st102 {
        fill: #6ac2ba;
      }

      .st103 {
        fill: #354460;
      }

      .st104 {
        fill: #fcb141;
      }

      .st105 {
        fill: #2d3b57;
      }

      .st106 {
        fill: #263452;
      }

      .st107 {
        fill: #243250;
      }

      .st108 {
        fill: #1b2a48;
      }

      .st109 {
        fill: #293753;
      }

      .st110 {
        fill: #f4746e;
      }

      .st111 {
        fill: #20355a;
      }

      .st112 {
        fill: #273450;
      }

      .st113 {
        fill: #fbb648;
      }

      .st114 {
        fill: #f2b168;
      }

      .st115 {
        fill: #6ec2ba;
      }

      .st116 {
        fill: #bfa1dc;
      }

      .st117 {
        fill: #b497e3;
      }

      .st118 {
        fill: #81d1c7;
      }

      .st119 {
        fill: #253857;
      }

      .st120 {
        fill: #79c8bf;
      }

      .st121 {
        fill: #162745;
      }

      .st122 {
        fill: #283954;
      }

      .st123 {
        fill: #2f3c58;
      }

      .st124 {
        fill: #1a2b48;
      }

      .st125 {
        fill: #fdfbf5;
      }

      .st126 {
        fill: #fa9595;
      }

      .st127 {
        fill: #fcb447;
      }

      .st128 {
        fill: #112444;
      }

      .st129 {
        fill: #f6c44c;
      }

      .st130 {
        fill: #102545;
      }

      .st131 {
        fill: #80cec5;
      }

      .st132 {
        fill: #374562;
      }

      .st133 {
        fill: #fa9695;
      }

      .st134 {
        fill: #59bcb5;
      }
    </style>
  </defs>
  <text class="st53" transform="translate(68.46 430)"><tspan x="0" y="0">FAMILY HUB</tspan></text>
  <g>
    <path class="st20" d="M491.99,84.3c.04.97.23,1.91.93,2.63.73-.23,1.15,1.1.43,1.43l2.08,5.46c.36.06.66.21.79.56.85,2.36,3.27,9.69,3.31,11.67,0,.16-.24.32-.55.48,1.4,9.76,2.61,19.64,3.65,29.64.45,82.01.62,166.96-.18,249.29-1.3,14.77-2.96,31.48-8.67,44.99-.13.31-.58.38-.97.4-15.61,45.1-63.16,71.29-111.43,71.43-77.79.46-155.5.58-233.13.37-37.48.8-74.34-4.94-102.85-30.83-17.29-15.7-29.07-36.48-33.15-59.2-.36-.41-.7-.83-.98-1.28s-.54-.89-.64-1.36c-2.35-10.93-3.38-23.5-3.79-34.42l.21-238.8c1.17-24.21,6.07-47.45,19.19-67.23l8.35-11.2c13.73-15.88,32.35-28.83,52.79-35.08,10.69-3.27,21.42-5.42,32.64-6.24,2.49-.18,4.91-.56,7.41-.66l12.07-.45,25.76-.13,204.37.02,12.72.62,8.34.58c14.5,1,28.48,4.15,41.8,9.75l14.42,7.1,3.59,2.35,12.06,8.85,5.65,5.28c1.07,1,1.79,1.77,2.76,2.8l3.62,3.86c2.72,2.91,4.97,5.94,7.17,9.24l3.99,5.98,6.26,12.07Z"/>
    <path class="st73" d="M12.25,412.63c2.62,17.31,11.54,32.74,20.87,47.39,3.39,2.97,7.04,6.31,9.6,9.98,14.07,13.33,30.57,22.76,49.14,28.44l.32,1.17c14,3.1,28.23,4.88,42.67,5.34,79.76.3,159.54.37,239.33.2,10.47-.24,21.19-1.29,31.5-3.04,5.59-.95,10.9-2.19,16.44-3.59-.6-1.35.88-1.99,1.84-.94,5.37-1.64,10.59-3.62,15.66-5.92-.84-.4-.68-.72.24-.58,7.39-3.53,15.28-8.7,21.76-13.9,6.57-5.28,11.97-10.68,16.83-17.39,4.6-6.35,10.12-14.78,12.88-22.07,1.38-2.43,2.28-5.14,2.7-8.12,6.18-16.84,8.51-35.87,8.8-53.61.23-80.51.17-160.5-.18-239.97-1.09-9.82-2.32-19.65-3.69-29.47l-1.74-6.29c-.61-2.19-2.1-4.19-1.8-6.42l-2.08-5.46-.43-1.43c-.44-.46-.89-1.02-.54-1.58.64-.09.97.22,1.23.81l1.93,4.46c.88,2.04,1.58,3.77,2.18,5.87l1.94,6.86,1.51,7.47,2.94,16.54-.35,3.16.76,7.68c.32,3.18.15,5.82.16,8.97l.04,20.5.03,14.43-.09,5v17.23c-.02,2.69.45,4.8.09,7.57-.4,3.04-.72,7.04.03,9.96.65,2.52.57,3.57.06,6.09-.86,4.36-.03,9.35-.13,13.83l-.11,4.58-.21,37.44.37,7.88-.07,5.46-.04,11.08.1,11.98c.59,2.41-.17,4.3-.17,6.64l.02,32.51.26,7.84c.09,2.66.39,5.2-.31,8.04l.45,6.81c-.86,3.36-.14,6.39-.53,9.63l-.63,5.22-1.26,12.15-.93,4.99c-.46,2.46-1.82,4.33-1.78,7.07.04,2.42-1.55,4.72-2.32,6.93l-3.75,10.77-3.77,7.61-3.69,6.31c-4.91,8.4-11.56,15.42-18.39,22.28l-4.02,3.55-5.28,4.15-15.08,9.39-4.9,2.16c-5.34,2.36-16.57,7.42-20.21,7.75l-3.98.37-4.38,1.42-9.14,1.45-5.34,1.02c-2.1.4-3.24.61-5.32.07l-7.06.93c-1.44.19-2.74-.93-4.5-.42-2.31.67-4.53.73-6.91.3l-2.2.51-8.39-.36c-3.55-.15-6.69-.51-10.2.53-2.79.82-5.64-1.41-11.01-.49-3.38.58-6.59.22-9.99.1l-4.02-.14c-2.75.43-5.26.26-8.04.21l-11.21-.19-9.87.5c-3.18-.52-5.89-.2-8.91-.19l-9.46.03-10.52.04-5.83-.41c-3.63.66-6.73.63-10.41.56l-17.78-.33-8.94.38c-1.13.05-2.35-.64-3.16-.77-3.94.36-7.52.42-11.53.36l-14.95-.23-4.48.28c-2.44.15-4.52-.93-7.07-.3l-5.06-.21c-3.8.85-7.15.34-10.82.34h-24.63c-2.5,0-4.53.17-7.03-.55l-3.46-.08c-2.56-.06-5.73.93-8.18-.08-2-.82-3.35-.06-5.3-.32l-14.44-1.99c-6.6-.91-12.83-2.46-19.2-4.34l-4.66-1.38-4.12-1.89-7.87-3.55-5.53-2.94-10.21-6.34-6.5-5.44c-3.87-3.24-7.27-6.55-10.59-10.29l-6.09-6.86c-5.88-6.62-11.36-18.64-15.12-27.1l-1.96-4.4c-.69-1.55-.55-2.83-1.22-4.39-1.06-2.47-1.56-5.35-2.24-8.02l-1.08-4.26c-.51-1.99-.77-3.65-.99-5.59l-1.45-12.94-.79-12.01-.51-6.11-.05-233.04c1.56-1.63.74-3.15.78-4.8.05-1.91.1-3.9.32-5.84.54-4.66.65-9.9.97-11.38l2.23-10.36.39-3.86,4.72-15.45,3.13-7.29c.89-2.08,1.24-3.98,2.72-5.82s2.33-4.24,3.8-6.11l2.36-2.98c.04,2.73-3.37,5.07-4.01,7.62-1.09,4.32-3.23,6.75-3.42,7.5-1.34,5.18-4.82,10.81-5.23,14.19-.14,1.14-.84,2.5-.83,3.32.03,2.23-1.12,3.78-1.35,5.95-1.14,10.81-3.41,21.32-3.42,32.35l-.13,235.06.76,10.84c.63,8.99,1.62,17.76,3.65,26.25Z"/>
    <path class="st73" d="M492.39,85.35c.2.53.37,1.03.54,1.58-1.08-.36-1.25-1.57-.93-2.63l.4,1.06Z"/>
    <path class="st44" d="M267.24,162.84l17.87,10.14,23.46,12.38c0,.25.04.46.16.55,3.43,2.47,13.19,5.1,17.73,6.18,4.69,1.12,9.47,1.87,14.29,2.24l20.93.33c2.92.48,5.79.7,8.6.66,23.38,4.56,42.63,21.8,49.79,44.12l-.17.82c2.06,5.9,3.21,11.89,3.47,17.97.44.74.63,2.65.74,3.85,1.43,15.78-1.6,33.87-5.46,49.4-1.3,3.23-2.17,6.34-2.62,9.34-4.28,12.26-10.44,24.11-17.98,34.7l-.2-.98c1.98-4.64,3.85-9.28,5.6-13.92l-.3-.57c1.28-5.18,1.19-10.38-.72-15.26l-1.28-.11c-3.14-4.27-9.12-5.66-13.63-2.62l-1.24-.32c-2.91,3.35-4.93,7.38-6.04,12.11-1.93,5.35-4.49,10.36-7.69,15.03-.59,1.96-2.26,4.49-3.57,6.15-.07.09-.31.06-.6-.01-1.86,1.51-3.97-.27-3.61-2.64,1.6-1.29,1.75-2.26.43-2.92.06-2.74,1.57-2.62,4.52.37l1.12-1.76c-.76-2.33.05-4.98,2.68-5.41.77-1.09,1.11-2.16,1-3.21-1.3-2.46-.22-4.56,3.22-6.3,1.03-1.78.88-3.92-.44-6.4,1.51-3.5.32-3.29-3.58.63-.57.35-1.44.62-2.06.36-1.05-.44-2.3-2.64-2.63-3.31l-2.32-2.47c-.64-3.04-.66-6.21-.07-9.5-.66-2.23-.37-3.33.88-3.3l-.57-.94c.74-1.92.45-3.9-.84-5.95.37-1.57,1.09-2.86,2.16-3.86l-.54-1.01c1.09-2.04.62-3.78-.69-5.56-5.08-4.01-1.35-8.48,2.25-11.75.32-.29-2.17-.37-2.48.43-1.42,1.19-2.63,2.59-3.61,4.2-.8.26-1.56-.37-2.28-1.88.11-1.69-.12-3.35-.68-4.98l-.66.1-2.11-5.9-.4.04-1.83-1.59c-4.4-9.27-10.58-17.69-18.44-24.42-27.5-20.6-54.9-41.18-82.2-61.77l.13-1.18c-.39,0-.99-.09-1.01-.33-.18-2.18-.47-13.67-.06-15.11l1-.58.35-.06c-1.5-2.82,4.58-5.02,6.95-5.03,1.8.59,3.57.85,5.31.79Z"/>
    <path class="st45" d="M210.94,215.83c.2.33.45.87.25,1.05-1.81,1.64-9.15,7.24-11.12,8.18l-1.18-.37c-.62.2-.86.2-.72,0l-12.61,9.31-.22.66.26,1.05c-14.16,10.03-27.87,21.82-33.91,38.79l-1.2.25c-1.24.66-2.28,5.04-2.87,7.58-1.05,4.54-1.78,9.14-1.98,13.8l-.63,1.03c-.47,1.12-.45,1.95.05,2.48.31.04.54.08.55.14.26,4.12.1,8.66-.11,12.68.38.52.52,1.35.41,2.5,1.2,3.99,2.6,9.02,2.54,13.29.44,2.57-2.3,2.3-3.23-.2-.29-4.68-1.12-8.9-3.85-12.86-.12-3.08-.27-6.67-.73-9.72-.17-1.1-.38-2.33-.92-3.31-.12-.21-.32-.29-.55-.32-2.24.22-3.63.3-4.88-1.84-4.58,5.42-9.94-4.76-3.63-7.01-1.89-2.02-1.72-3.76-.79-6.21,1.79-4.7,4.18-2.39,6.2.67,1.08.91,1.9.17,2.45-2.22,2.38-.73,4.33-1.87,5.84-3.44l-2.14-3.15c-3.53,5.81-6.08-.06-4.3-4.61-2.32-.44-3.91-2.06-4.77-4.87.6-2.25,1.34-4.45,2.23-6.62.01-2.83-1.81-3.59-5.47-2.28-2.59,1.97-5.1,4.02-7.53,6.15,2.33,1.12,1.06,3.53-.81,4.53s-9.08-.02-9.56-2.72l-1.45.36c-2.28-.5-3.02-.2-2.22.87,5.88,4.2-.96,7.72-4.88,4.21-.49,10-15.65.4-7.07-4.39,2.8-.12,3.97-.68,5.97-2.58,2.81.35,5.35-1.53,2.58-3.68-7.67.02-3.45-5.31,1.56-5.77,2.97,2.1,6.49,2.54,9.87,1.16-1.09-3.45-.85-7.05,2.09-9.53.2-1.67-1.36-2.17-4.7-1.48-1.54,1.52-3.56,1.34-6.06-.55-1.8.26-3.53.24-5.21-.03-1.92,3.78-3.67,5.57-5.25.34l-9.96.25.08-1.74c-.16-.39-.26-.77-.19-1.11,1.17-5.29,3.72-10.63,6.1-15.48l-.14-.56c5.28-9.59,12.81-17.85,22.13-23.79.78-.25,1.01-.22.69.1,6.94-4.36,14.81-8.11,23.07-8.64,2.77-1.08,5.76-1.6,8.98-1.55l21.65-.03c4.1-.55,8.16-1.28,12.19-2.2l.91.26c4.72-.38,5.18,1.33,2.98,5.08l4.01,1.75c1.19,1.08,1.13,2.7-.18,4.84.61,1.69,1.03,2.91-.91,3.86-.01.19.49,3.64.62,3.79.69.81,4.34,1.5,4.92-.36-6.96-5.6-.62-12.29,6.39-7,2.88-.48,4.49.3,4.84,2.33.33,2.22.17,4.49-.48,6.82,1.46,1.05,1.83,2.17,1.11,3.35l4.07-2.62c1.07-.11,1.36.47.81,1.38Z"/>
    <path class="st48" d="M383.95,146.84c-.2,5.04-.85,10.56-2.18,15.72-6.35,15.46-22.63,24.37-39.43,20.78-14.95-3.2-25.89-15.87-27.05-30.52-1.19-14.95,7.49-29.2,21.99-34.66,10.57-3.98,22.1-2.73,31.87,3.73,7.93,5.24,13.98,14.65,14.8,24.95Z"/>
    <path class="st30" d="M154.57,116.36c3.78.18,7.86.3,11.63-.02,11.23,1.89,21.5,9.38,25.58,19.95l-.15.8c2.75,7.18,4.09,15.05,1.03,22.31-1.03,4.13-2.58,7.55-4.65,10.27l-.16.67c-5.27,7.35-13.69,12.03-22.68,13.45-3.04-.38-6.53-.34-9.59-.04-10.53-1.4-20-7.73-25.19-16.84-.97-2.46-1.89-4.95-2.78-7.47.34-1.05.21-.98-.38.21-.25-1.15-.94-2.34-.88-3.62.48-1.37.49-1.52.02-.44-1.83-9.94,1.22-20.2,7.99-27.82,1.44-.58,4.31-3.38,4.57-4.44,1.35-1.31,3.03-2.07,4.57-3.02,2.25-.96,4.53-1.64,6.82-2.03-.8.09-1.28-.06-1.44-.44,1.82-.76,3.77-1.01,5.67-1.48Z"/>
    <path class="st123" d="M164.71,380.69c.15-.41.27-.37.38.09.3-.27.67-.58,1.04-.5.44.1,6.85,4.44,7.47,4.98l.03,1.21c.77-.12,1.97.32,2.04,1.1,1.18-1.03,3.31.42,3.01,1.87,1.24,0,2.45.58,3.33,1.43,1.24.82.62,1.17-.75.86,6.11,2.94,12.33,5.63,18.66,8.07,6.99,2.43,14.01,4.7,21.06,6.79,10.65,1.36,21.36,2.57,32.15,3.63l.22-.5c16.17.71,33.36-2.9,49.45-7.44l1.57-.03c1.22-1.15,4.22-2.5,5.79-2.28,1.9,1.77-2.08,4.01-3.88,4.53-.71,3.86-2.13,5.18-4.27,3.94-.73,1.67-2.01,2.19-3.75,2.38-.44,6.59-3.19,9.69-8.26,9.31-.54.38-.82,1.09-.85,1.71,3.94-.23,6.92.88,8.93,3.32,1.36-.39,2.86-.37,2.27,1.24-.08.5-.38.47-.79.18-5.59,2.16-12.02,3.29-18.04,4.22-4.74.73-9.7,1.45-14.5,1.37-.45,0-.89-.1-1.34-.21l-.16.48c-.99-.37-1.94-.37-2.85-.02-7.39.32-15.74.61-23.11-.63-18.45-.87-38.85-6.24-56.25-14.2-.56-.25-1.04-.67-1.5-1.13l-.39.25-8.38-4.13c.85.37.72.45-.38.24l-8.64-4.92c-.6-1.06-2.43-2.25-3.46-2.08l-13.67-9.74-.1-.67-4.21-3.27-7.39-6.85c-2.15-2.96.25-3.49,3.25-3.69,3.87-.25,8.1,2.77,7.51,6.83,1.51,2.46,4.69,2.29,7.04,1.07,1.62-.49,3.26-.73,4.91-.72,1.99,2.7,3.1,3.36,3.34,1.97-.64-2.9-.53-5.58.32-8.04-1.79-1.24-4.89-4.86-2.11-5.78,1.7,1.47,3.46,2.72,5.29,3.75Z"/>
    <path class="st51" d="M402.42,324.78c1.54,4.55,2.58,10.52.29,15.26-.71,6.18-3.74,12.78-7.13,18.12-.71,1.61-1.53,4.51-3.09,5.62-.67,0-.7.47-.6,1.1l-1.98,2.29c-.76,1.91-2.07,2.93-3.21,4.47-7.43,10.06-16.62,18.65-26.42,26.27-.81,0-1.42.21-1.51,1.02-.73.49-1.34.98-2.05,1.48-1.1.24-2.44,1.02-4.01,2.36-.76.42-1.08.81-.96,1.16l-2.1,1.36c-1.06-.09-4.35,2.03-3,1.98-1.95,1.29-4.23,2.25-6.18,3.44l-.5.16c-11.82,6.14-25.65,12.85-39.61,15.53-.58-.78-2.09-.48-3.05.27-.52-.17-.55-1.12-.11-1.62-2.58-2.04-5.63-2.05-8.85-2.27-.65-.96.21-2.66.74-3.2.76-.78,2.08-.44,3.28-.47,4.28-.09,3.87-5.63,5.16-9.28.68-.22,2.03,0,2.6-.53.65-.61,1.21-1.24,1.26-2.67l2.48,1.75,1.67-4.83c2.26-.32,4.05-1.77,4.62-3.59-.07-.26-.11-.47-.06-.49,4.82-2.31,10.04-4.6,14.99-6.67.11-.04.28.06.47.21,3.62-2.36,7.32-4.7,11.11-7.01-.24-.3-.55-.81-.37-.98,2.3-2.16,10.26-8.84,12.72-10.12l1.09.4c-.12-.99.27-1.01.59-.02,2.92-2.46,6.75-5.72,8.54-8.58l-.46-1.04c2.2-3.25,4.79-6.06,7.78-8.45-.33-1.73,1.58-1.75.84.24,1.69-2.72,3.47-5.38,5.33-7.96,4.09-7.48,7.65-15.23,10.29-23.31,1.26-1.85,2.34-3.33,3.23-4.44,5.16-4.13,12.68-2.49,16.16,3.04Z"/>
    <path class="st49" d="M248.18,91.66c2.69,1.65,4.94,3.55,6.82,6.52.6-1.1,1.08-2.05,1.95-1.63,6.33-8.04,16.99-9.04,25.4-4.43l.5.17c4.24,2.91,7.07,7.36,8.11,12.33.21,4.39-.35,8.61-1.68,12.66-1,1.72-1.64,3.27-1.93,4.66-1.34,2.15-2.7,4.33-4.77,6.25l-12.32,11.42c-1.11.09-2.19,1.18-2.53,2.14l-9.23,7.7c-1.73,1.44-4.39,2.02-6.33.5-9.18-7.23-28.61-22.72-31.75-31.45,0-1.33-.31-2.67-.96-4.03l.35-.42c-1.75-2.49-1.3-9.71.24-12.38.1-.17.31-.27.57-.35-.13-.25-.22-.49-.16-.68,3.36-10.49,18.75-14.09,26.97-9.1l.75.12Z"/>
    <path class="st35" d="M248.53,161.54c.6.03,1.08.18,1.45.45,1.79.2,4.01.8,4.12,2.84,1.04-.28,1.22.49.53,2.31l.07,16.03c.59.97.09,1.89-1.49,2.76l-29.13,21.44-1.08-.44c-1.77.78-3.61,1.99-5.52,3.62.34-.39.37-.26.08.41.19.33.45.83.25,1.05-.71.77-2.76,2.12-3.74,2.76-1.13,1.24-2.17,1.59-3.13,1.07-.07-.5-.48-.63-.83-.38l-7.97,5.62c-.56-.55-.53-1.47-.31-2.07.41-1.14,3.2-.43,3.75-3.64-4.16-1.35,1.27-4.9-1.98-10.1-4.9,2.08-7.01-4.12-10.42-.86-1.11,1.06-1.16,2.74-.66,3.99.59,1.46,1.59,2.21,3.56,2.87l-3.38,2.94-3.86-1.43c-.92-.34-.52-2.07-.73-2.85l-.51-1.86c-.14-.5.92-1.08,1.67-1.34l-.83-2.72c.45-1.2,1.47-2.05,1.29-3.54-1.97-.61-3.77-1.29-5.61-2.64,1.17-1.12,1.96-2.48,1.97-4.14-1.32-.31-2.55-.41-3.32-1.04,4.07-1.53,8.22-2.99,12.44-4.37,11.86-5.32,23.27-11.19,34.22-17.62-.39.35-.4.19-.03-.49l11.07-6.33c2.55-1.46,5.32-2.04,8.07-2.28Z"/>
    <path class="st11" d="M143.7,359.84c-1.34.45-3.38-3.15-3.72-4.45-.36.16-.88.37-1.09.16-.67-.69-1.91-2.85-2.41-3.8-1-1.03-1.18-1.94-.55-2.73-.35-1.03-.8-2.2-1.34-3.53-2.3-3.35-4.26-8.17-5.32-12.14l-.42-.03c-.48-2.3-1.31-4.31-2.49-6.03-.74-.01-1.62-2.08-.92-2.58-3.54-5.93-10.13-6.97-16.19-4.11.26.15.48.32.52.52.06.26-3.53,3.67-4.1,3.16-3.57,5.14-2.64,10.6-1.36,16.34.84,2.49,1.77,5,2.79,7.53l.33-.17c1.04.19,1.95,2.71,1.92,3.9,1.27.27,1.23.58.06,1.09-.7-.22-1.12-.78-1.55-1.51l-8.26-14.2c-.16-.66-.1-.87.19-.62-4.11-8.27-8.29-17.08-9.9-26.18-3.22-8.24-4.57-17.65-5.32-26.28l.66-.23c.91.64,1.02.22.33-1.27-.37-3.92,3.28-8.48,6.62-4.07,2.75,4.13,8.89,7.42,13.78,5.42l7.03.5c2.89-1.44,4.97-.02,6.22,4.28,8.33-.85,5.76,8.61,2.62,12.88-3.84.9,1.87,6.34,3.32,7.43,3.14-.24,4.9,1.03,5.27,3.82-.51,2.36,1.93,7.67,3.49,9.13.32.3,3.44,1.68,4.16,1.98,2.24.42,4.1,1.25,5.59,2.48-.56,1.24-1.25,2.45-2.06,3.63-.5,3.38.06,6.94,1.7,10.68-.51,2.56-.43,4.84.23,6.82,2.62,1.5,5.71,9.84,4.56,12.11-1.32,2.6-2.77,1.48-4.37.05Z"/>
    <path class="st36" d="M123.86,323.28c.36.99.92,2.04,1.68,3.15,1.42,4.27,3.01,8.48,4.77,12.64,1.14,2.97,2.54,5.61,4.2,7.93.69-.27,1.66,1.35,1.42,2.02l4.05,6.37c.37,1.64,2.1,4.14,3.7,4.89,1.82.25,5.45,3.52,4.78,5.52.86.06,2.06,1.61,2.47,2.65,1.05-1.01,2.19.22,1.42,1.42,1.65.86,3.83,2.76,4.28,4.28.27.95,1.66,2,2.52,2.06,1.26-1.02,4.95,1.88,4.42,3.35.66-.31,1.49.47,1.14,1.13-.1.17-.55.41-.83.19l-4.66-3.56c.17,3.98,4.12,4.37,3.33,5.84-.13.24-.69.61-.72,1.07-.31,4.59,1.48,7.78-.73,8.17-1.62.29-2.93-1.44-3.61-2.85l-4.48.95c-2.68,1.54-6.75,1.07-8.1-1.88-.52-1.14.41-3.62-1.54-4.5-3.7-1.66-7.15-2.5-8.68.13,1.13,1.69,2.66,2.72,4.12,4,2.94,2.58,5.63,5.21,8.81,7.31-.28.4-.56.39-.75.52-3.11-2.22-6-4.78-8.83-7.59l-8.24-8.18c-.42-1.17-1.43-2.33-2-2.08-5.44-5.67-10.22-12.04-14.46-18.9l-3.94-6.37c-.16-.27-.05-.81-.06-1.09-1.06-3.28-2.26-6.58-3.6-9.9l.27-.45c-2.03-3.34-2.51-9.12-.97-12.7-.61-2.98,3.39-7.75,6.37-7.83,1.74-.88,3.91-1.29,6.5-1.22,1.75-.72,5.7,1.59,5.96,3.5Z"/>
    <path class="st21" d="M492.81,430.86c.44.13.81.39.73.75-.95,4.19-2.9,7.99-4.9,11.82-4.74,9.1-11.09,18.7-18.25,26.16-6.67,6.95-19.2,15.65-27.7,20.42-.89.5-1.8.9-2.82,1.06.05.25-.2.43-.24.58-5.07,2.31-10.29,4.29-15.66,5.92l-1.84.94c-4.12,1.03-8.21,1.97-12.25,2.85-11.77,2.1-23.68,3.36-35.72,3.78-79.65.17-159.39.1-239.22-.19-14.4-.45-28.65-2.24-42.76-5.34l-10.61-3.81-8.17-3.41-4.39-2.09c-2.03-.96-3.6-1.97-5.47-3.16l-4.25-2.7-5.96-4.3c-2-1.44-3.41-2.79-5.26-4.39-2.29-1.99-5.47-3.56-6.94-6.37-.84-1.6-2.02-2.14-3.24-3.37-1.78-1.8-3.37-3.91-5.54-5.41-.37-1.04-1.22-2.49-1.86-3.49l-6.23-9.76-3.43-6.53c-1.36-2.58-2.7-5.4-3.52-8.21l-.86-2.96c-.44-1.49-1.11-2.32-1.47-3.69l-2.66-10.29c-.3-1.15-.9-2.21-.06-3.04,4.59,19.23,13.12,36.81,26.95,51.67,7.91,8.5,16.82,15.61,27.1,21.25,26.79,14.68,53.05,16.14,83.35,16.13h210.45c14.92-.01,29.26-.22,43.85-2.59,35.06-5.68,63.77-23.9,81.7-53.88l5.32-10.25c.72-1.38.75-3.13,1.84-4.09Z"/>
    <path class="st73" d="M439.87,491.08c1.93-.98,3.58-2.24,5.4-3.77l2.83-1.16,13.42-9.51,4.38-3.61c1.96-1.62,3.73-3.25,5.29-5.23l3.24-4.11c1.56-1.98,2.98-3.29,4.57-5.46l2.27-3.09c1.48-2.02,2.53-4.08,3.77-6.26l3.2-5.64,2.56-5.97c1.49-1.87,1.92-4.25,2.02-6.4s5.1-13.65,6.53-24.12c1.33-9.68,2.9-19.07,2.91-28.96l.22-232.97-.62-3.1c.53-4.22.07-8.17-.39-12.35l-1.77-16.12c-.26-2.36-1.15-4.48-.72-6.71l1.03,4.03,2.42,20.72c.2,1.75.03,3.37.84,4.79-.75.71-.47,1.8-.42,2.64l.45,7.9v16.25s.12,3.15.12,3.15v209.97c0,2.22-.92,3.97-.51,6.08s-.19,4.3-.37,6.41l-1.22,14.25c-.1,1.2-.11,2.12-.38,3.54l-.99,5.35c-1.01,1.57-.33,2.9-.73,4.39l-1.06,3.93-.99,4.3c-1.83,4.12-3.17,7.95-4.21,12.26-.87.84-1.48,2.63-2.02,3.62l-5.66,10.54c-2.15,4.01-5.1,7.9-7.89,11.29l-6.36,7.75c-2.65,3.23-6.22,5.83-9.64,8.28l-10.51,7.51-2.7,1.74-4.95,3.1c-1,.63-2.36.85-3.37.75Z"/>
    <path class="st68" d="M87.38,245.63l.36,2.61c-2.84,11.5-2.72,23.6-2.06,35.18l-.47.54c-.3,1.41,0,2.9.23,4.6,1.02,7.52,2.32,14.82,4.43,21.91.1,1.31-.36,1.3-.88.1-7.29-26.15-9.23-57.74,4.15-82.08.6.05.7.45.44.83-2.82,5.32-4.68,10.76-6.21,16.31Z"/>
    <path class="st126" d="M370.27,195.32c-.61,1.33-2.13.4-3.06.31l-5.56-.51-20.93-.31c-11.15-.87-21.71-3.6-31.73-8.28l-.85-.4c-.35-.16-.16-.69.43-.78,10.11,4.55,20.76,7.61,32.14,8.48l21.74.37,7.82,1.12Z"/>
    <path class="st99" d="M229.39,170.14c.54.02.74.6.31.85l-20.99,11.48c-8.33,4.55-16.92,8.02-25.94,10.16-4.29,1.02-8.69,1.88-13.1,1.94-.66.28-1.9.25-2.02-.48l1.03-.1,3.97-.44c1.71.2,3.14-.3,4.88-.67,7.7-1.63,14.89-3.72,22.1-7,10.4-4.72,20.06-10.19,29.76-15.73Z"/>
    <path class="st29" d="M239.55,431.79c.97.08.95.45-.02.63h-2.01s-2.49-.49-2.49-.49h-1.51c-.99-.39-2.07-.36-3.12-.32-16.84-2.4-33.51-6.83-48.71-14.33-.71-.55-.83-.8.12-.82,17.27,7.69,35.56,12.79,54.66,14.97l3.1.35Z"/>
    <path class="st133" d="M424.54,261.63v2.46c.42,4.19.41,8.63-.01,12.83v3.96s-.49,3.42-.49,3.42l-.02,2.01-.48,2.94c.01.26-.13.73-.03.98l-.45,2.5-2.01,10.38c-1.19,6.18-3.05,11.96-5.05,17.68-.26.05-.8-.46-.61-.98,4.39-11.7,7.12-23.64,7.91-36.12l.58-9.24-.02-9.39-.53-6.87c-.02-.95.36-.96.71-.03l.48,3.45Z"/>
    <path class="st17" d="M340.46,410.71l-3.64,2.23c-11.46,6.12-23.43,10.82-35.81,14.16-1.38.33-1.86.15-1.45-.53l.79-.18c13.64-3.84,26.92-8.85,39.36-16.09.47-.27.79-.03.76.4Z"/>
    <path class="st41" d="M267.24,162.84c-1.35,1.46-4.61-.96-5.94-.26l-6.25,3.29c.48,2.03,1.02,3.71.22,5.5-.24-1.74.24-3.02-.64-4.24-.38-.53-.32-1.65-.53-2.31-.57-2.12-2.01-2.47-4.12-2.84-.54.02-1.06-.11-1.45-.45,4.38-.39,8.94-.97,13.45.12l5.26,1.18Z"/>
    <path class="st107" d="M299.55,426.58c.16.53.9.59,1.45.53-9.89,2.67-20.05,4.77-30.27,5.36-1.55.36-3.61.38-5.05-.06-.44-.1-.43-.25,0-.46,11.47-.37,22.69-2.89,33.88-5.38Z"/>
    <path class="st110" d="M248.18,91.66c.01.54-.45.82-.9.55-9.3-5.45-22.38-1.69-26.66,9.1-.35.91-.76.85-.83-.12,4.42-11.19,18.02-15.91,28.39-9.54Z"/>
    <path class="st1" d="M167.65,194.09l2.02.48c.03.12-.18.43-.53.42l-14.55-.02c-5.38,0-10.53.15-15.54,1.17-.97-.09-.98-.48-.02-.71,4.53-1.37,9.52-1.45,14.55-1.42l14.07.07Z"/>
    <path class="st65" d="M99.6,337.25c-4.43-8.55-8.03-17.47-10.6-26.69l.88-.1c2.56,8.57,5.62,17.07,9.85,25.21.23.45.59.74.53,1.21-.03.21-.32.41-.67.37Z"/>
    <path class="st80" d="M282.85,92.29c-.07.43-.59.65-.95.42-8.37-5.3-18.7-3.11-24.95,3.84,5.87-8.43,17.45-10.06,25.9-4.26Z"/>
    <path class="st61" d="M139.02,195.44l.02.71c-8.02,1.63-15.82,4.43-22.87,9.05-.46.3-.87.09-.89-.5,5.91-3.77,12.2-7.15,19.43-8.46l4.32-.79Z"/>
    <path class="st102" d="M192.79,159.95c-.18.11-.23-.07-.14-.56,1.81-7.3,1.71-15.01-1.39-22.23-.18-.43.18-.89.51-.88l2.38,7.89c1.61,5.34.75,10.98-1.36,15.77Z"/>
    <path class="st97" d="M403.43,340.61c-1.16,5.18-3.39,9.98-5.4,14.9-.71.99-1.6,2.04-2.46,2.65,2.63-5.93,5.62-11.69,7.13-18.12.58-.84.68-.35.72.57Z"/>
    <path class="st37" d="M287.35,121.95c-.48.06-.73-.46-.49-.83,2.86-4.41,3.91-9.27,3.38-14.52-.08-.79.02-1.73.73-1.97,1.28,6.15-.34,12.05-3.61,17.33Z"/>
    <path class="st107" d="M262.66,432.42c.87-.36,2.64-.59,2.52.5h-2.02c-5.44.42-11.14.42-16.59,0h-2.51c-1.52-.19-3.03-.36-4.53-.49l.02-.63,7.01.5,16.1.13Z"/>
    <path class="st26" d="M423.06,250.71l.49,2.55c-.2,1.54.2,3.33.51,4.92l-.71.03c-.46-6.03-1.97-11.91-3.84-17.91-.13-.42.12-.88.54-.88l3,11.28Z"/>
    <path class="st101" d="M219.82,114.04c.26,1.01-.05,1.21-.82.47-1.1-4.42-.84-9.18.79-13.32l.83.12c-1.56,3.94-2.07,8.74-.8,12.73Z"/>
    <path class="st40" d="M381.77,162.55c-.3-.1-.61-.57-.42-1.06,1.67-4.48,2.17-9.1,1.92-13.91-.03-.59.25-.96.69-.75.42,5.2-.22,10.93-2.18,15.72Z"/>
    <path class="st115" d="M166.2,116.34c-.11.48-.47.69-1.02.69h-9.62c-.54,0-.9-.21-.99-.66,2.61-.63,8.45-.56,11.63-.02Z"/>
    <path class="st89" d="M192.79,159.95c-.33,3.94-2.67,7.21-4.95,10.39-.52.08-.79-.46-.48-.82,2.64-3.08,3.77-6.7,5.29-10.12.21.15.15.41.14.56Z"/>
    <path class="st54" d="M181.8,416.47l-.12.82-9.03-4.46c0-.27.26-.73.44-.64l8.71,4.28Z"/>
    <path class="st32" d="M165.16,183.79c-3.23.51-6.34.4-9.59-.04.04-.43.41-.64.98-.64h7.62c.58,0,.94.22.99.68Z"/>
    <path class="st106" d="M263.16,432.91c-.06.33-.43.52-.98.52h-14.63c-.55,0-.92-.18-.98-.52h16.59Z"/>
    <path class="st87" d="M130.38,166.91c-1.32-2.32-2.57-4.63-3.15-7.27.15-.27.04-.74.52-1.21.7,4.11,3.87,7.77,2.63,8.47Z"/>
    <path class="st26" d="M424.52,276.93v-12.83c.34.05.53.42.53.96v10.92c0,.53-.19.9-.53.96Z"/>
    <path class="st50" d="M148.9,117.84c.46.11,1.03-.06,1.7.44-3.79.67-6.66,3.46-7.08,2.02,1.7-1.05,3.53-1.69,5.38-2.46Z"/>
    <path class="st27" d="M134.37,127.76l4.57-4.44c.29-.04.59.17.5.44l-4.62,4.54c-.26.04-.47-.26-.45-.54Z"/>
    <path class="st112" d="M164.01,407.91l-3.46-2.08c.03-.5.51-.69.88-.45l3.16,2.04c.15.09-.26.56-.57.5Z"/>
    <path class="st7" d="M220.43,118.5l-1.43-3.99.82-.47,1,3.14c.19.6.08,1.23-.38,1.32Z"/>
    <path class="st122" d="M356.71,400.42c-1.25.88-2.5,2.06-4.01,2.36,1.62-1.99,4.01-3.66,4.01-2.36Z"/>
    <path class="st60" d="M349.64,405.29l-3,1.98c-.23,0-.62.18-1.09-.25l3.26-2.14c.38-.25.86-.05.83.42Z"/>
    <path class="st52" d="M270.26,139.62l-2.53,2.14c-.28.07-.61-.24-.52-.33l.83-.84,1.15-1.14c.23-.23.81-.45,1.07.17Z"/>
    <path class="st123" d="M270.73,432.47c-.08.27-.45.47-.99.46l-4.06-.03c-.44-.14-.43-.3,0-.49l5.05.06Z"/>
    <path class="st106" d="M244.06,432.91h-4.04c-.35,0-.5-.27-.49-.49l3.57-.03c.54,0,.91.19.97.52Z"/>
    <path class="st0" d="M129.81,380.31l-2-2.08c-.04-.54.56-.76.68-.23,1,.55,1.51,1.39,1.32,2.31Z"/>
    <path class="st1" d="M172.65,193.55c-1.07.79-2.64.42-3.97.44,1.04-.7,2.69-.59,3.97-.44Z"/>
    <path class="st106" d="M265.68,431.96v.46s0,.49,0,.49h-.49c-.71-.72-1.64-.48-2.52-.49.75-.86,2.01-.43,3.01-.46Z"/>
    <path class="st26" d="M424.03,284.32c.01-1.15-.32-2.53.48-3.42,0,1.15.33,2.53-.48,3.42Z"/>
    <path class="st84" d="M360.27,397.91l-1.51,1.02c-.96-.45-.09-.86.17-1.13.36-.38,1.09-.71,1.35.1Z"/>
    <path class="st73" d="M495.44,93.82c-1.26-1.5-1.54-3.64-2.08-5.46,1.08,1.08,2.16,4.93,2.08,5.46Z"/>
    <path class="st44" d="M424.54,261.63c-.81-.89-.54-2.29-.48-3.45.43,1.1.48,2.17.48,3.45Z"/>
    <path class="st134" d="M126.35,156.02l.02-.44c.04-.93-.14-1.84.27-3.1.54,1.1.6,2.79-.29,3.54Z"/>
    <path class="st26" d="M423.53,289.26c-.05-1-.28-2.21.48-2.94,0,.98.28,2.21-.48,2.94Z"/>
    <path class="st106" d="M233.52,431.93c-1.13,0-2.1-.16-3.12-.31,1.04-.25,2.34-.46,3.12.31Z"/>
    <path class="st106" d="M237.51,432.42c-.84,0-1.91.22-2.49-.49.84,0,1.92-.21,2.49.49Z"/>
    <path class="st44" d="M423.55,253.26c-.73-.59-.63-1.66-.49-2.55.24.9.63,1.47.49,2.55Z"/>
    <path class="st109" d="M352.71,402.77c-.21.71-.41.8-.96,1.16-.69-.08-.57-.5-.38-.68.5-.46.87-.38,1.34-.48Z"/>
    <path class="st26" d="M423.06,292.75c-.14-.85-.24-1.92.45-2.5.4.97-.3,1.76-.45,2.5Z"/>
    <path class="st13" d="M392.48,363.79c-.27.19-.43.9-.6,1.1-.27,0-.5-.15-.53-.35-.06-.4.02-.59.47-.99.18-.16.57-.34.67.24Z"/>
    <path class="st73" d="M422.12,498.51c-.49,1-1.47.91-2.57,1.18l-11.58,2.83-4.06-.04-13.57,2.22-12.01.95-4.15.17-13.17-.04-7.37.07-23.32-.14-28.7.12c-1.98,0-4.26-.68-6.09-.17-1.63.45-2.82.03-4.29.04l-9.99.1-4.72-.1h-11.25s-34.72.19-34.72.19c-2.8.01-5.7-.57-8.27.02-1.31.3-1.9,0-3.07,0l-24.7-.03-7.33-.13-17.92.09-8.85-.03-10.82.03-4.61.03-13.02-.68-4.73-.43c-8.92.08-17.37-.95-26.07-3.05l-6.59-.92c-1.1-.15-1.82-.68-2.41-1.19,1.55-.49,2.9.36,4.35.62l3.38.62c4.98.91,9.79,1.9,14.93,2.26l5.59.38,10.6.51c2.18.11,4.42,1.23,6.69-.03,2.38.88,4.78.52,7.34.54l14.02.09,3.15-.09,51.14-.22,13.07.49,5.72-.18c4.36-.14,8.62.26,12.98.24l12.03-.05,4.46-.13c2.06-.06,3.62.05,5.63.04h5.11s8.42.13,8.42.13c3.63.06,7.22-.77,10.81-.09,3.64.69,7.1-.31,10.8-.32l17.07-.04,4.58.25c2.45.13,4.82-.8,7.4,0,2.23.69,4.41-.12,6.68-.1l4.16.04,30-.14,3.95.04c4.11.04,7.76.37,11.72-.97l4.9-.03,9.46-1.33c1.17-.16,1.8-.63,3.23-.41l4.37-1.08,1.25.39c.27.08.72-.65,1.04-.93l3.48-.44c2.15-1.08,4.27-1.75,6.46-1.16Z"/>
    <path class="st73" d="M439.63,491.66c-.36,1.47-1.99,1.66-3.45,2.18l-8.41,2.98c-1.35.48-2.46,1.01-3.8.76.75-.38,1.49-.69,2.47-1.11l6.25-2.65c1.52-.65,3.2-.53,4.65-1.57.74-.52,1.58-.77,2.31-.59Z"/>
    <path class="st95" d="M357.03,272.11c.22-.03.4-.03.43.03,1.34,3.12,2.61,6.93,2.8,10.28.7-.09.86.5.39.96.68,1.56,1.02,3.2,1.03,4.92.94,1.42,1.06,4.74.55,6.4.38,3.7.41,7.66-.06,11.36,1.13-.04.38,2.7-.07,3.38l-.45,2.53c-.05,5.47-.95,10.89-2.71,16.24l.21,1.48c-.89,1.62-1.75,3.28-2.59,4.98-.09,5.84-3.32,12.19-6.17,17.36-.16.29-.47.51-.8.73s-.72.4-1.11.55c-.66,2.05-1.64,4.22-3.39,5.57,1.36.87.25,2.24-1.13,1.46l-1.78-.92c-6.34-9.46-15.93-16.49-27.03-19.64l-1.44-1.4c-.12-.69,1.46-.46,1.38-.44-2.07.46-5.7-1.11-6.88-2.84,1.15-.62,2.04-1.16,2.67-1.64.62-1.25,1.78-2.14,3.47-2.65l6.73-4.82c1.3-1.79,2.79-2.98,4.49-3.56l.05-.83c6.07-8.49,7.2-19.89,3.36-29.49l.18-.82-1.48-.78c-3.69-7.37-10.23-13.29-18.26-15.76l-1.02-1.31c-5.66-.92-11.2-.69-16.6.71l-.86-.2c-1.04,1.83-4.17,3.25-6.26,2.81-2.48,2.21-4.99,4.38-7.53,6.5.93,1.21-.95,3.59-2.41,3.01l.07.61c-3.95,6.14-5.97,14.62-4.7,21.85,1.4,7.93,4.87,13.63,10.5,19.27,1.88.23,3.72,1.07,5.52,2.53,2.45.84,4.41,2.03,5.88,3.58,0,.4-.47.91-.46.86.02-.99,1.24-.25,1,.97,1.47-.17,3.21-.25,4.68-.05.4.06.59.47.66.91-.18.77-1.75.74-2.55.41l-.68.96c-1.57.22-3.07.17-4.53-.16-.98.63-2.26,1-3.85,1.1-2.27,1.05-4.62,1.9-7.04,2.54l-1.03,1.63c-7.47,3.91-13.88,9.72-17.95,17.06l-1.66,1c-1.34,3.62-2.7,7.24-4.08,10.86.57.87.08,2.98-.42,3.97-.3.92-.7.86-.86-.11-1.13-1.24-1.74-2.91-1.82-4.99l-2.4-6.92c-1.08-1.45-1.52-2.9-1.32-4.34-1.43-.86-3-3.72-3.64-5.42l-1.86-.66c-7.61-8.7-18.55-14.35-30.16-15.59l-1.59-1.13c-2.85.2-5.84.38-8.69.03l-1.58,1.14c-14.29,1.58-27.49,9.44-35.15,21.44l-1.73.91-1.05.14-7.57-14.97.5-1.24h-.41s-1.92-5.39-5.75-16.16c-.97-3.68-1.67-7.46-2.09-11.34l-.38-3c-.36-.07-.36-.4,0-.98-.86,0-.64-.53,0-1-.18-.77-.35-1.59-.51-2.46-1.04-10.65-.64-23.62,3.75-34.09.11-.27.38-.47.7-.66l3.15-7.22c5.17-9.61,11.91-17.89,20.7-24.54l11.02-8.34-.09-.37c4.37-3.25,8.74-6.5,13.11-9.76l.53.15,12.05-8.87,6.62-4.89c.9-1.46,3.65-3.38,5.44-4.02l29.01-21.35c1.1-.81,2.03-1.51,2.69-2.41l4.13,3.38,75.02,55.96c10.46,7.8,18.12,18.16,23.19,29.61Z"/>
    <path class="st67" d="M367.5,309.17c-.57.75.19,2.32.12,3.32l-.48,6.4c-.18,2.37.93,4.04,2.94,5.01.14.9.41,1.96.93,2.4,2.38,2,3.11-1.87,6.35-2.96.63-.21,1.33-.19,1.75.34.26.32-.18.99-.45,1.47-1.01,1.78.21,3.25.82,5,.34.99-.33,3.19-1.35,4.01s-3.83,2.06-3.26,3.68c.97,1.67,1.07,3.11-.24,4.58l-.4,1.34c-.07.23-.65.43-1.15-.14-1.83,1.26-1.83,3.07-1.04,4.82-.75.83-1.53,1.86-1.49,3.29l-2.67-2.04c-.55-.42-.83-1.9-2.28-.94.76.38,2.26,1.47,1.63,2.24l-1.88,2.26c.75,1.2,1.85,1.45,3.03,1.78.39.6.07,1.41-.95,2.43,0-.92-.67-.49-.84-.24-1.49,1.02-2.75,2.26-3.8,3.71-2.05-.26-3.11.7-3.17,2.9-1.27,1.9-3.45,3.02-6.56,3.34.84,1.82.56,3.21-.83,4.18-.85,2.61-1.73,3.22-2.65,1.84-1.48.31-1.93-1.35-.46-1.88l-1.01-3.11c-1.87.36-2.87-2.44-1.66-3.72-.63-1.4-.41-2.03.66-1.87,2.1,1.6,1.79.73.39-.56-1.51.39-2.48,0-2.92-1.18-.71.5-.97.24-.58-.51.67-.4.84-.98,1.13-1.46,1.75-1.38,2.71-3.52,3.39-5.57,3.53-5.81,5.93-12.2,8.08-18.64.39-.68.49-.85.74-.06.48.67,1.04,1.13,1.67,1.39,1.37.36,1.82,1.66,1.18,2.85,1.31,1.49.71,2.32-.55,3.6,2.37-.51,3.97-.24,4.39,2.42,1.43-4.1,3.62-7.71,6.5-11.18.37-1.34.15-2.67-.65-4,.05-1.81-.32-2.68-1.08-2.6-.37,1.46-3.43.21-3.14-1.21l-1.02-.51c.33-1.63-.48-2.95-2.44-3.95.16-1.24,0-2.25-.5-3.04l-.43-.21.88-6.13c.35-6.15,1.42-7.58,3.2-4.3,1.14.08,1.88.55,2.2,1.41Z"/>
    <path class="st56" d="M368.24,298.41c-.04,1.2-.32,2.43-1.26,3.85,1.54,2.05,1.98,4.98.52,6.9-.91-.16-1.8-.15-2.57-.5-.68-.3-.88-1.15-1.27-2.34-1.06,1.38-.65,2.63-.85,4.06l-1.15,8c.31.07.56.15.58.26.16,1.33-.52,5.92-1.02,7.14l-1.12.49c-.2,1.14.02,1.93,1.1,2.48.19-.98.72-.94,1.55-.62.69-1.97,1.65-2.72,2.88-2.25l3.14,1.21.73.3c.26,2.08.6,4.15,1.02,6.22-2.13,1.67-3.76,3.79-4.88,6.38-2.26,2.67-5.04,2.16-5.48-1.14-.74-.72-1.03-1.82-1.18-2.85-.97-.77-.59-2.49-.27-3.56-.06-.27-.2-.26-.4-.02.76.89.42,2.59-1,2.19l-.74.06c2.47-7.39,4.23-14.96,5.08-22.7l.45-2.53.07-3.38c.49-3.66.42-7.68.06-11.36l-.55-6.4c-.19-.81-.16-1.49.09-2.04,1.17.08,1.77.93,1.82,2.54l.56,10.66c1.68-1.48,3.05-1.82,4.1-1.04Z"/>
    <path class="st67" d="M368.24,298.41l-1.85.77-2.71,1.88c-.16,1.15.49,2.63-.37,3.57l-.38-11.14c-.09-2.57-.11-4.97-1.17-7.24-.39-.81-.77-1.77-1.12-2.88-.22-.14-.32-.74-.39-.96.03-1.37-.19-2.73-.65-4.07l.61-.48c.59,1.46,1.11,2.58,1.07,4.56,0,.45.92,1.23,1.13,1.92,1.65-3.26,4.94-6.47,7.22-5.25.49.26.91,1.2.94,1.69-3.07.28-5.87,6.11-4.67,8.9,3.21,1.78,4.51,5.68,2.35,8.73Z"/>
    <path class="st8" d="M372.74,349.49c-.39.18-.46-.02-.21-.61,3.97-6.69,7.02-13.81,9.46-21.38.8-2.48,2.44-4.3,4.27-5.76.54.05.65.43.26.73-1.57,1.22-2.74,2.78-3.38,4.68-2.68,7.95-5.92,15.47-10.4,22.33Z"/>
    <path class="st81" d="M403.43,340.61l-.72-.57c1-4.25,1.17-9.01-.07-13.41l-.65-1.15c-.12-.22-.13-.67.43-.71,2.95,4.7,2.25,10.31,1.02,15.83Z"/>
    <path class="st23" d="M372.74,349.49c-.02,1.38-1.22,2.3-1.97,3.49-1.07,1.7-1.7,3.34-3.36,4.47l.95-2.43,4.17-6.14.21.61Z"/>
    <path class="st9" d="M360.21,277.86c-.1,1.9,1.06,3.32.05,4.55l-3.22-10.3c.04-.4.06-.85.4-1.1l2.78,6.85Z"/>
    <path class="st30" d="M148.44,328.25c.24-.4.43-.39.57.04,2.02,6.36,3.96,11.91,5.82,16.66l.34-.5,8.13,16.07c-.01,2.09-.67,4.21-1.96,6.36-.58,2.72-1.63,4.99-3.15,6.79l-.63.44c-1.67-1.53-3.4-2.95-5.2-4.25l-1.42-1.42c-.46-1.11-1.32-2.21-2.47-2.65l-4.78-5.52c-.44-.11-.42-.26.02-.44.29-.39.65-.33.84-.14.17.16.79.8,1.07.78,1.65-.13,2.12-1.98,1.54-3.66l-2.25-6.56c-2.11-1.5-3.82-3.32-2.88-6.14,2.02-6.04-5.96-10.8.94-17.49l-4.75-1.46c-1.42-.44-2.43-1.35-3.9-1.76-2.02-.56-2.4-3.13-3.28-4.51s-1.94-2.24-1.57-4.04c.29-1.4-.57-4.5-1.97-4.66-1.53.09-2.35.52-3.54-.81l-3.46-3.9c-.8-.9-1.26-1.42-1.16-2.61.08-1.01,1.11-1.31,1.92-2,2.25-4.38,4.11-8.3.74-11.21l-3.04.29c-1.44-1.16-1.68-2.99-2.34-4.3-.85-1.7-2.74-.07-3.7-.15l-6.79-.52c-2.26.85-3.47,1.06-5.76.28-2.61-.89-5.56-1.7-7.37-4.14-1.13-1.52-2.37-2.88-4.03-3.79l-1.62,2.05c-1.59,2.01-1.31,3.52-.05,5.35.96,1.4.72,6.47-.85,6.02-.29-.08-.38-.45-.22-1-.12-2.03-.13-4.35-.99-5.82-.52-.9-.39-1.34-.49-2.61-.96-12.09-.51-24.25,2.66-35.71.15.31.39,1.22.61,1.13l1.28-.48c1.51.62,3.55-.14,4.79-.04,1.44.12,1.98.43,3.42-.29,1.23-.61,1.3,5.36,2.47,3.24l.45-.81c.51-.93.83-1.87,1.4-2.33.75-.6,1.84.17,2.45.08,2.14-.31,3.95-.82,5.67.71.54.48,1.64,1.01,2.12.65l1.39-1.02c1.65-.28,3.29-.29,4.93-.01.93.16,1.18,1.7,1.1,2.56-.11,1.19-4.41,2.25-1.84,9.93-3.53,1.71-8.19,1.79-11.29-.83-2.46.75-4.71,1.83-4.58,3.22.15,1.62,2.8-.82,4.86,1.77,1.06,1.33.36,2.26-.14,3.36-.77,1.68-2.98.61-3.78,1.16-1.59,1.13-2.16,2.58-4.48,2.32-1.88-.21-3.99,1.81-3.59,3.65l2.14,2.4c.71.8,2.45,1.08,3.5,1.05,3.15-.07,1.3-4.17,3.15-5.32.87,1.57,1.84,2.43,3.21,2.4,1.17-.02,3-.29,3.4-1.81-.83-.82-2.39-1.65-2.93-3.16-.2-.56.49-2.13,1.16-1.95,1.53.41,2.63.75,4.17-.36l1.61,2.67,5.87.83c1.3.18,2.71-1.4,2.96-2.62-.63-.05-1.99-1.1-1.58-1.62,3.12-3.94,5.57-3.57,8.11-6.66,1.31-.48,3.9-.92,5.42-.57,1.04.58,1.88,3.13,1.5,4.14l-2.23,5.97c.79,1.15,1.42,2.97,2.38,3.66.56.4,2.7.16,2.58,1.39-.28,1.8-1.32,4.1-.22,5.81.46.28,1.58.21,1.7-.08l.55-1.3c.2-.47.45-.91.71-1.03,1.17-.54,1.78,2.07,3.82,4.08-1,2.68-4.1,3.51-6.4,4.34-.35.99-.65,2.68-1.55,2.88-2.73.62-2.95-2.32-5.3-3.99-1.36,1.7-2.89,4.21-1.86,6.37.32.67,2.01,1.84.6,2.73-.85.54-1.84,1.02-2.34,1.97-.45.86.59,4.35,2.47,4.89,1.14.33,1.74-.92,2.34-1.38,1.47-1.13,2.18,1.54,3,1.65,1.46.08,3.35-.76,4.13.95,1.24,2.7,1.01,5.65,1.31,8.55.14,1.36.84,3.02.28,4.54,2.36,3.32,3.67,7.25,3.65,11.35,0,1.12.35,2.13,1.3,2.91.36-.39.75-.77,1.2-1.02Z"/>
    <path class="st66" d="M146.03,309.51c.29.76.49,1.83,0,2.47.45.69.18.94-.54.48.32-1.74-.32-3.54-.35-5.46l-.09-7.36c-.55-.36-.57-1.19-.05-2.48.45-7.48,1.78-14.96,4.56-22.28-.03-.56.68-.69.91-.13-2.65,6.07-3.68,12.72-4.26,19.58l-.18,15.17Z"/>
    <path class="st30" d="M127.02,257.52l-4.09,1.77-1.71-4.33,3.71-1.18c1.35-.43,2.85.74,4.45-.03.59.96.37,1.6.17,2.24-.33,1.09-1.35,1.02-2.53,1.53Z"/>
    <path class="st92" d="M198.88,224.7l-13.56,9.97c-.64-.47-.28-.81.05-1.01l12.06-8.86.69-.63c.26-.24.78-.02.76.53Z"/>
    <path class="st86" d="M146.54,313.94l.38,3,2.15,9.36-.06,1.98c-.11,0-.39-.01-.57-.04l-2.54-13.29c-.36-1.61-.15-2.27.64-1.99v.98Z"/>
    <path class="st30" d="M149.28,274.56c-.27-1.3-.13-3.06,1.61-4.27-.27,1.46-.04,2.72-1.61,4.27Z"/>
    <path class="st30" d="M145.05,299.64l-.93,1.03c-.12-1.43.29-2.58.87-3.51l.05,2.48Z"/>
    <path class="st88" d="M146.54,312.96c-.64.4-.61,1.3-.64,1.99-.16-.79-.59-1.54-.41-2.5.28-.02.54-.25.54-.48.13-.43.3-.43.5-.01v1Z"/>
    <path class="st30" d="M152.48,267.64c-.49-.25-.59-.79-.37-1.29.17-.38.62-.97,1.47-.72l-1.1,2.01Z"/>
    <path class="st43" d="M201.76,337.02c2.89.26,5.78.25,8.69-.03,13.07.92,25.39,7.26,33.61,17.38.68,1.62,1.6,3.25,2.77,4.91l-.35.6-1.66,4.4c1.66,8.2,2.63,16.46,2.91,24.78-1.64,3.61-1.79,5.92-.23,9.68.19,1.18.34,2.39.2,3.58-.43,3.82-.89,4.11-4.69,4.94-1.76.28-3.71.16-5.85-.37.14-1.37-.33-2.62-1.41-3.74-.55-2.15-2.85-3.22-4.97-3.76s-3.08-.59-4.59.87c-1.98.31-3.84.98-5.59,2.01-1.29-.21-2.01.29-2.14,1.5-3.03-.86-6.06-1.54-9.07-2.04-1.34.24-4.53-.65-4.99-1.9l-4.08-1.45c-.51.82-2.54,0-2.56-1.02l-5.05-1.86-.3.31c-1.4-.87-2.79-1.33-4.16-1.39l-.3.36-6.71-3.06c.58-.31.56-.65.75-.86-.89-.85-2.07-1.4-3.33-1.43-1.07-.54-1.98-1.32-3.01-1.87-.09-.88-1.21-1.09-2.04-1.1l-8.53-5.69c-.36-.89-.7-1.12-1.52-1.22l-4.42-3.35c-.61.34-1.29-.38-1.09-1.02-.9-.96-.86-1.46.13-1.51,1.08-4.59,2.71-9.05,5.11-13.15,7.97-13.59,22.67-22.29,38.46-23.5Z"/>
    <path class="st111" d="M304.36,402.24c-12.02,3.68-24.31,6.56-37.13,7.46l-5.14.36-8.98.16c-.44-.14-.44-.31,0-.51-.44-.14-.43-.3,0-.49.14-.43.31-.43.5,0,2.11.45,4.9.39,7.04.01-.09-.9,2.72-.86,3-.01,1.83-.3,3.7-.45,5.61-.45l1.62-.75c11.23-1.3,22.62-3.81,33.09-7.02l.44.4c1.04-.09.73.29-.05.84Z"/>
    <path class="st106" d="M188.26,394.43l1.72.29c9.75,4.17,19.57,7.69,29.45,10.56.45-.64,2.07.1,1.51,1.01.45-.06.43.05.02.31-13.97-3.19-27.63-7.94-39.72-14.86l7.01,2.7Z"/>
    <path class="st70" d="M227.45,406.86c.22-.6,2.25-.19,2.52.46,1.26-.46,3.43-.12,4.55.43l2.99.47c-.02-.68,1.23-.53,1.54.03l4,.44c1.44-.43,4.45-.24,6.26.02.12.02.2.24.27.53,1.21.16,2.39.32,3.53.47v.51s-7.04-.4-7.04-.4l-8.56-.57-16.54-2.66-.02-.31c.12-.29.26-.54.48-.69.32-.22,5.46.54,6.02,1.27Z"/>
    <path class="st59" d="M325.55,393.02l-15.4,6.95-5.79,2.28.05-.84c-.25-.84,2.49-1.78,3.48-1.48-.16-.35-.32-.93-.1-1.04,3.99-2.06,9.84-4.64,14.05-6.16,1.37-.95,2.42-1.05,3.15-.3.85-.35,1.14-.14.56.59Z"/>
    <path class="st10" d="M182,390.87l-3.33-1.43c1.08-.58,3.02.4,3.33,1.43Z"/>
    <path class="st33" d="M175.66,387.57l-2.04-1.1c.53-.83,2.39.27,2.55.78.04.14-.27.39-.51.31Z"/>
    <path class="st91" d="M165.09,380.78l-.38-.09-1.14-1.13c.28-.63.88-.52,1.36,0,.26.28.69.63.16,1.21Z"/>
    <path class="st90" d="M295.32,337.19c3.52-.16,7.07-.12,10.66.13,1.22-1.95,5.5-.33,7.39.52.17.08.27.29.36.54,12.7,3.12,23.51,11.09,30.25,21.96.33,0,.46.38.58.51,1.51.93,2.69,1.89,1.88,3.62.52,1.17.69,2.79,1.66,3.72l1.01,3.11c-.09.6.35,1.32.46,1.88,1.45.02,1.51,1.17.56,2.13l-13.45,10.7-8.5,5.2c-1.11.82-2.17,1.23-3.17,1.22l-17.1,7.49-.95-.08c-9.07,3.3-18.81,5.61-28.4,7.12-7.38,1.16-16.2,2.11-23.54,1.76-.12,0-.23-.22-.34-.49-.33-10.5-.42-21.15-.28-31.94-.03-1.61.27-2.96.9-4.05l-.3-.58c1.12-3.71,2.32-7.16,3.61-10.35,4.33-8.68,11.79-15.41,20.63-19.68,2.64-.95,5.35-1.74,8.13-2.36.03-.91,4.28-.88,4.06-.88-.24,0-.92,0-1.02-.03-.12-.04-.21-.18-.28-.36,1.66-.41,3.5-.96,5.21-.8Z"/>
    <path class="st44" d="M366.56,357.21l-7.32,9.49c.08.15.15.3.13.44-.09.58-7.63,7.3-8.67,8.14-.18-.06-.51-.03-.59.02-.4-.72-.42-1.43-.56-2.13,1.82.19.6-2.39,3.19-3.49-.31-.97-.71-1.92-.76-2.92,1.33-1.46,3.5-1.04,5.04-1.6,1.89-.69,2.15-3.36,2.34-4.98l3.16-.17c.76-.04.9-1.38,1.33-1.92.89-.37,2.18-.12,2.72-.89Z"/>
    <path class="st119" d="M336.66,386.01c-3.34,2.66-7.15,5.23-11.11,7.01l-.56-.59,11.68-6.42Z"/>
    <path class="st57" d="M350.7,375.28l8.54-8.58c.44.06.61.59.32.86l-6.99,6.58c-.59.55-1.04,1.42-1.88,1.14Z"/>
    <path class="st45" d="M209.02,206.27c-.84.48-1.54.63-2.14.34-.45-.22-1.06-.84-.95-1.41.13-.71.75-1.41,1.58-1.69.94-.31,1.67-.16,2.43.56.49.46.25,1.53-.92,2.2Z"/>
    <path class="st45" d="M201.63,197.51c-.37.54-.8,1.52-1.49,1.38-.43-.09-1.13-.75-1.24-1.23-.13-.56.6-1.36,1.26-1.68.55-.17.84-.18,1.14-.12.53.12,1.08.54.33,1.65Z"/>
    <path class="st64" d="M254.09,164.83c-1.34-1.08-2.53-2.17-4.12-2.84.88-.04,1.99-.26,3,.08,1.32.45,1.72,1.82,1.12,2.76Z"/>
    <path class="st34" d="M222.99,206.92l-5.44,4.02c-.6.01-.77-.57-.28-.69l4.98-3.64c.33-.23.65-.21.74.31Z"/>
    <path class="st45" d="M189.94,207.55c.41-.16,1.18.72,1.3,1.16.15.52-.02,1.17-.97,1.39-.45.1-.91-.29-1.34-.81-.35-.43-.07-1.31,1.01-1.74Z"/>
    <path class="st93" d="M125.43,324.71l.92,2.58c1.44,1.6,2.3,4.81,2.4,6.96.24-.02.44-.03.48.05,1.76,3.64,3.3,7.55,4.74,11.26.64.12,1.11,1.03.54,1.44.06.49-.48.65-.71.23l-3.95-7.97-2.93-7.49c-1.04-2.66-1.39-5.4-3.42-7.67-.25-.28-.07-.84.35-.82.57.21,1.09.69,1.57,1.44Z"/>
    <path class="st58" d="M125.43,324.71c-.76-.19-1.15-.81-1.57-1.44-1.32-2-3.72-2.9-5.96-3.5-2.25.21-4.44.41-6.57.59-.42.68-1.9,1.26-2.1.24,5-4.03,14-2,16.19,4.11Z"/>
    <path class="st96" d="M105.65,324.29c.52,1.13-.66,3.43-1.39,4.47.53.53.33,1.53-.53,1.46-.33,1.48-.34,3.01.08,4.48.69.97.87,2.79.53,3.94.25.84.24,1.5-.05,1.99-2.11-5.58-2.39-13.36,1.36-16.34Z"/>
    <path class="st120" d="M134.59,345.49c.2.93-.19.96-.62.07-1.1-.84-1.29-2.32-1.85-3.6l-3.37-7.7c-.13-.79.04-1.09.52-.91l5.32,12.14Z"/>
    <path class="st78" d="M109.35,351.87l-1.92-3.9c-1.12-1.06-2.52-4.34-2.08-5.9-.12-.95.11-1.13.67-.55l3.17,8.15c.32.82,1.07,1.54.16,2.2Z"/>
    <path class="st22" d="M105.34,342.08l2.08,5.9c-.07.24.11.6-.34,1.02-1.21-2.69-2.84-5.43-2.79-8.38l.05-1.99c.78.46,1.33,2.55.99,3.44Z"/>
    <path class="st18" d="M111.34,320.36c.92-.09.9.22.07.63-3.18,1.48-5.82,4.29-6.37,7.83-.19.94-.58.89-.78-.07.07-1.66,1.19-2.9,1.39-4.47,1.2-.95,3.08-2.08,3.58-3.68l2.1-.24Z"/>
    <path class="st5" d="M129.27,333.35l-.52.91-2.4-6.96c.77-.09,1.14.34,1.38,1.13l1.53,4.93Z"/>
    <path class="st4" d="M143.7,359.84l-.02.44c-.14.16-.32.27-.45.28-.26.01-.63-.19-.85-.51l-2.74-3.87c-.26-.37-.12-.81.35-.79l1.69,2.32c.67.92,1.04,1.85,2.03,2.13Z"/>
    <path class="st118" d="M135.93,349.02l-1.42-2.02c-.23-.33-.15-1.14-.54-1.44l.62-.07,1.76,2.74c.26.4.11.79-.42.79Z"/>
    <path class="st24" d="M106.02,341.53l-.67.55-.99-3.44c-.37-1.28-.53-2.61-.53-3.94-.42-1.45-.42-3.01-.08-4.48.2-.37.51-1.06.53-1.46l.78.07c-.64,4.15-.56,8.76.97,12.7Z"/>
    <path class="st77" d="M158.19,373.67l-.13,1.51c-.3.64-1.37-.42-1.43-1.04l-4.28-4.28c2.32-.23,3.26,3.37,5.83,3.8Z"/>
    <path class="st79" d="M117.91,319.78c-.53,1.26-3.77-.05-6.5,1.22l-.07-.63c2.28-.56,4.29-1.2,6.57-.59Z"/>
    <path class="st25" d="M158.06,375.18c.43.31.65.69,1.09,1.02-.21.69-.83.42-1.06.19l-1.14-1.13-.82-.83c-.09-.09.23-.39.5-.29l1.43,1.04Z"/>
    <path class="st131" d="M150.93,368.45l-2.47-2.65c-.04-.29.26-.59.35-.49l.59.6c.84.86,1.71,1.45,1.53,2.54Z"/>
    <path class="st16" d="M230.7,323.45c-6.51,6.64-14.01,10.93-23.69,11.19-8.57.23-17.78-3.32-23.22-9.84-3.77-3.48-6.3-8.86-7.45-13.93-2.23-9.88.63-18.83,5.9-26.84,8.82-11.47,25.83-15.15,38.91-7.91,17.53,9.7,21.71,32.28,9.55,47.33Z"/>
    <path class="st90" d="M308.39,273.44c9.35,2.4,16.88,9.26,20.77,17.85-.04.47-.09.77-.14.89,3.7,11.86,2.91,18.54-3.5,29.57.3.14.32.37.06.68-3.7,5.01-8.78,8.82-14.69,11.03-1.75,1.43-3.48,2.03-5.86,2.28s-5.84.56-7.59-.67l-2.69-.38c-.62,1.16-2.74.8-2.75-.61-4.26-1.37-8.04-3.36-11.4-6.1-3.63-3.89-7.28-8.2-9.24-14.05-1.22-3.63-1.72-7.35-1.55-11.16.29-6.14,2.33-11.2,4.91-16.51l2.41-3.01c1.15-.55.38.1.42.06,2.44-2.39,3.94-3.82,6.77-5.9.08.36.19.14.34-.66,1.98-1.16,4.04-2.1,6.26-2.81l1.01.17c5.35-1.34,10.83-1.56,16.45-.67Z"/>
    <path class="st12" d="M247.7,359.79c3.22,4.79,5,10.51,5.53,16.25.79.24.61,2.28-.45,1.65l.34.15c.06,10.01.05,20.04-.02,30.07l-.51.33c-1.32.9-4.98.61-6.52-.09-.78-.42-1.8-.72-3.07-.89.68-.86,1.82-1.09,2.9-1.66,1.34-3.36.91-6.7-.37-9.99-.7-1.8.08-3.76.77-5.4,1.04-2.47.51-5.02.17-7.61l-1.69-12.79-.89-4.55c-.42-2.13.56-4.7,2.57-5.37,0-.59.41-.63,1.22-.09Z"/>
    <path class="st105" d="M236.53,247.07c4.41.13,8.77.05,13.08-.25-.38-.26-.32-.42.15-.48,1.38.56,2.39,1.59,2.39,3.14-.57,4.15-.3,8.62-.03,12.85l-.58.98c-.81.65-1.71,1.13-2.7,1.45-4.2-.05-8.37.05-12.49.3-1.33,0-2.76-1.33-2.78-2.59.22-4.18.28-8.41.16-12.69l.89-2.69c.3-.27,1.05-.91,1.6-.93.94.13,1.15.35.32.91Z"/>
    <path class="st51" d="M261.66,247.07c4.41.13,8.77.05,13.08-.25-.38-.26-.33-.42.14-.5,1.28.54,1.99,1.35,2.37,2.46-.2,4.51-.2,9,0,13.49l-.42,1.01c-.82.83-1.98,1.32-3.13,1.52-1.76.3-10.08.18-11.98-.05l-2.22-.8c-.58-.48-.9-1.21-.89-2.03.55-4.28.4-8.91.14-13.26.01-1.2,1.5-2.09,2.54-2.39.95-.07,1.16.19.37.79Z"/>
    <path class="st36" d="M261.27,220.53c.94.22.86.59-.12.63,4.38.42,9.2.4,13.59,0-.98-.11-.9-.52.11-.65,1.26.04,2.38,1.66,2.57,2.77.02,3.89-.21,8.29-.69,13.17.14.61-.91,1.88-1.48,2.17-1.31.67-13.47.53-14.75-.17-.71-.39-1.59-1.15-1.32-1.89-.19-4.39-.35-8.82-.5-13.29,0-1.36,1.22-2.38,2.6-2.74Z"/>
    <path class="st14" d="M252.05,223.33c.12,4.34-.08,8.7-.58,13.09-.3,2.04-1.54,2.24-3.3,2.48-1.21.17-11.23.12-12.04-.13-.97-.29-2.41-1.35-2.14-2.32l.16-14.24c.8-.97,1.42-1.16,1.85-.57,4.26-.28,8.62-.35,13.08-.22-.98-.71-.51-.94.61-.77,1.21.36,2.22,1.31,2.35,2.68Z"/>
    <path class="st75" d="M230.7,323.45c-12.02,14.88-34.57,15.67-47.57,1.46-.13-.88.12-.79.66-.1,9.93,9.57,23.82,12.3,36.75,5.99,3.67-1.79,6.76-4.4,9.35-7.66.23-.42.75-.23.81.32Z"/>
    <path class="st125" d="M310.89,333.46c.54.64.12.79-.16.88-.59.19-1.31.11-1.92.62,1.09.26,1.57.5,2.07,1.38.82,1,3,1.04,4.59,1.43-.43.56-1.15.44-1.74.6-2.42-.59-5.32-1.14-7.74-1.06-2.8-.09-5.5-.27-8.1-.53-2.52-.47-4.81.22-7.66.36.48-.46,1.52-.45,1.32-1.25-.09-.36.14-1.06-.73-1.49.22-.48.73-.39,1.19-.32.75.24,2.12.14,2.75.61l2.69.38c4.56.05,9.09-.14,13.45-1.6Z"/>
    <path class="st98" d="M183.79,324.81c-.18.11-.35.07-.66.1-10.29-11.25-10.77-28.96-.89-40.88.23.34.34.99.05,1.27-1.76,1.64-2.42,3.57-3.39,5.71-4.79,10.6-3.52,22.71,3.65,32,.53.68,1.16,1.09,1.24,1.81Z"/>
    <path class="st104" d="M280.6,327.98c-6-4.91-9.96-12-11.04-19.92-.98-7.13,1.2-16.86,5.17-21.81.4.01.65.52.42.89-8.13,13.06-6.14,30.19,5.7,40.07.22.18.25.51-.24.76Z"/>
    <path class="st127" d="M325.57,322.43c-.55-.02-.74-.51-.48-.86,4.12-5.48,5.83-11.75,5.52-18.47-.17-3.7-.25-7.14-2.03-10.56-.09-.17-.08-.76-.05-.98.02-.15.25-.27.63-.28,4.42,9.77,3.01,22.21-3.58,31.15Z"/>
    <path class="st63" d="M254.66,408.23c.51.66.23.82-.54.5-.21-10.67-.37-21.41-.45-32.24l.42-.34.42-3.97c.19-.94.57-.89.77.07l-.6,3.46-.02,32.53Z"/>
    <path class="st19" d="M276.71,236.45c.2-.39.32-.34.37.13-.26,1.71-2.05,2.86-3.82,2.86h-11.16c-1.57.02-3.45-1.51-3.45-3.04.26-.24.43-.18.51.16,1.05,1.81,2.8,2.06,5.02,2.02l10.91-.22,1.62-1.91Z"/>
    <path class="st42" d="M251.47,236.42c0,1.55-.88,2.92-2.5,2.92h-12.41c-.97,0-3.06-1.5-3.09-2.56.11-.51.29-.62.53-.32.58.71,1.37,1.9,2.59,1.91l11.57.11c1.2.01,3.3-.85,3.32-2.05Z"/>
    <path class="st114" d="M254.09,376.15l.03,32.58c.44.15.43.31,0,.49-.15.3-.32.29-.5,0-1.33-.16-1.28-.61,0-.99l-.5-.15.09-29.84-.41-.55c.48-.37.49-1.19.45-1.65l.86.11Z"/>
    <path class="st71" d="M308.39,273.44c-.35.62-1.19.58-1.98.44-4.85-.85-9.51-.95-14.13.64-.59.2-1.29-.15-1.35-.57,5.63-1.78,11.71-1.98,17.46-.51Z"/>
    <path class="st76" d="M155.17,344.45c-.01.4.01.8-.36,1.08-2.5-5.85-4.88-11.32-5.81-17.25,1.43,1.63,1.57,3.94,2.38,6.08l3.78,10.08Z"/>
    <path class="st39" d="M274.84,220.51l-.11.65c-4.42.42-9.16.41-13.59,0l.12-.63c.58-.15,1.15-.42,1.88-.4l11.7.37Z"/>
    <path class="st15" d="M249.75,246.34l-.15.48c-4.3.3-8.66.38-13.08.25-.05-.42-.36-.61-.32-.91l10.88-.36c1.04-.03,1.83.2,2.66.54Z"/>
    <path class="st128" d="M249.7,220.64c-.33.17-.59.35-.61.77-4.42.11-8.78.02-13.07-.26-.52-.07-.44-.28.22-.62l10.86-.41c1.04-.04,1.71.26,2.61.52Z"/>
    <path class="st38" d="M274.88,246.32l-.14.5c-4.3.3-8.66.39-13.08.25-.05-.42-.37-.6-.37-.79,2.65-.77,11.78-.73,13.59.04Z"/>
    <path class="st62" d="M277.08,236.58l-.37-.13.02-12.81c0-.36.33-.56.67-.36.76,4.4.36,8.85-.33,13.31Z"/>
    <path class="st2" d="M277.25,262.27c-.33-.17-.55-.52-.55-1.1v-11.42c0-.54.2-.91.55-.97,1.08,3.19.27,6.35-.02,9.92-.09,1.05.52,2.38.02,3.58Z"/>
    <path class="st108" d="M259.5,263.95c.7-.96,1.68.46,2.28.47l11.86.07,3.19-1.21c-.59,1.42-2.03,1.85-3.58,1.85l-11.6-.05c-.89,0-1.57-.65-2.15-1.13Z"/>
    <path class="st94" d="M255.28,372.24l-.77-.07c.41-3.86,2.33-7.35,4.08-10.86.36-.07.49.18.48.34-.11,1.73-2.79,4.85-3.79,10.59Z"/>
    <path class="st6" d="M251.47,236.42l.17-12.77c0-.35.24-.53.41-.32l.33,3.47c.32,3.37-.02,6.59-.91,9.62Z"/>
    <path class="st124" d="M236.02,221.15c.44.15.43.31-.01.49-.95.02-1.93.8-1.94,2.08l-.08,12.73c0,.23-.25.47-.53.32l.11-14.48c.44-.67,1.81-1.72,2.66-1.75l-.22.62Z"/>
    <path class="st47" d="M251.53,263.31c-.3.51-1.1,1.72-1.99,1.72l-13.21.03c.13-.15.33-.46.7-.46l11.04-.02c2.28,0,3.28-2.83,3.45-1.27Z"/>
    <path class="st121" d="M233.56,262.47l-.15-10.26c-.03-1.87-.38-3.69,1.2-5.13l-.55,2.72-.08,12.29c0,.35-.28.54-.43.37Z"/>
    <path class="st28" d="M284.67,276.75c.32-.07.76.5.58.59-4.49,2.32-6.92,6.16-7.77,6.47-.14.05-.41-.34-.35-.56,2.09-2.6,4.64-4.8,7.53-6.5Z"/>
    <path class="st83" d="M210.45,336.99c-1,1.02-2.57.77-4.09.56-1.68.15-3.41.53-4.59-.53,2.96-.32,5.79-.78,8.69-.03Z"/>
    <path class="st130" d="M252.11,262.33c-.34-.24-.54-.59-.54-1.16v-10.93c0-.58.21-.93.57-.76l.03,10.17c0,.97.52,1.69-.07,2.68Z"/>
    <path class="st3" d="M259.17,236.56c-.2.05-.42.02-.51-.16v-13.13c.17-.07.48.12.48.41l.03,12.88Z"/>
    <path class="st46" d="M258.6,261.92l.14-13.26c.23.19.42.56.42,1.08v11.42c0,.57-.2.92-.56.76Z"/>
    <path class="st74" d="M286.26,339.09c.64-.27,1.01-.21,1.09.18l-5.75,2.18c-.9.34-1.75.95-2.38.18,2.22-1.07,4.63-2.65,7.04-2.54Z"/>
    <path class="st44" d="M362.17,306.05l.06-11.36c.3.06.5.43.5.96v9.44c0,.55-.2.91-.55.95Z"/>
    <path class="st31" d="M247.7,359.79c0,.32-.18.42-.36.37l-.86-.28c-.51-3.21-3.95-4.79-2.42-5.51l3.64,5.42Z"/>
    <path class="st55" d="M345.1,358.88l3.39-5.57c.08,2.19-1.9,5.57-3.39,5.57Z"/>
    <path class="st113" d="M290.11,338c.45.07,1.07-.04,1.72.42l-4.48.85-1.09-.18c1.11-.78,2.56-.78,3.85-1.1Z"/>
    <path class="st44" d="M361.76,286.24l-.09,2.04-1.03-4.92c.95.6.75,2.08,1.12,2.88Z"/>
    <path class="st88" d="M146.93,316.95c-.23-.99-.38-1.88-.38-3,.75.74.56,1.98.38,3Z"/>
    <path class="st30" d="M146.54,311.96h-.5s0-2.46,0-2.46c.73.58.51,1.63.51,2.46Z"/>
    <path class="st44" d="M361.65,311.96c.09-.84-.18-1.8.45-2.53-.02.85.38,1.94-.45,2.53Z"/>
    <path class="st44" d="M360.15,338.85c.62.61,1.93,1.99,3.08,1.91,3.05-1.57,2.4-5.46,6.49-7.47l-.96-2.98c-.37-1.15.29-2.25,0-3.21,0-.33.14-.64.39-.7.28-.07,1.01.01,1.11.51l.64,2.98c1.7,2.63.52,4.64-1.36,6.62l-3.19,4.88-1.03,3.66c-1.2,1.13-1.42,2-1.22,3.67l-1.77-1.01c-.69-.39-1.95,1.54-2.89,1.27-.45-.13-1.24-1.92-.31-3.3.82-1.21,2.06,2.07,3.93.69.06-.75-.07-2.59-1.08-3.16-1.37,0-3.32.84-4.29-.38,1.72-1.39,2.62-2.47,2.45-3.96Z"/>
    <path class="st44" d="M365.61,325.89c-1.05.86-1.78,2.01-2.21,3.45l-2.22-.57c-1.21-.12-1.57-.95-1.1-2.48l1.57-7.89c.51-.14,1.03.03,1.25.5.14.3,0,.72-.05,1.2-.14,1.34,1.37,2.02,2.69,1.83l.07,3.97Z"/>
    <path class="st44" d="M348.72,358.6c1.46-1.38,1.75-2.43,1.44-4.22.88-.46,2.7-1.18,3.68-.61,1.11.65,1.06,2.68.41,3.62-1.59,1.18-3.07,1.92-5.53,1.21Z"/>
    <path class="st44" d="M346.42,364.47c-.55-1.22-1.79-2.17-1.88-3.62.67.65,1.64.24,2.67.17,1.52-.09,2.82,2.36,2.24,3.55-.69.53-2.16-.35-2.44-1.27-.62.32-.53.77-.6,1.16Z"/>
    <path class="st44" d="M352.45,350.3c.52-.64,1.26-.83,2.27-1.53-1.03-.46-1.63-2.74-.64-3.03.92-.27,1.9,1.05,2.05,1.67.33,1.29-.86,1.39-2.02,3.31-.21.34-1.09.36-1.66-.41Z"/>
    <path class="st44" d="M358.97,336l-1.34,1.9c-.53-1.24-.73-2.41-.33-3.29l1-2.19c.09-.28.22-.25.4.02.86,1.11.97,2.57.27,3.56Z"/>
    <path class="st44" d="M349.09,371.3c-.68-.89-.94-1.98-1.01-3.11.91.86,1.2,1.82,1.01,3.11Z"/>
    <path class="st44" d="M363.8,350.66c-.02,1.13-.77.64-.91.33-.13-.29-.02-.64.52-1.03.69-.9,1.26.32.39.7Z"/>
    <path class="st67" d="M361.18,328.76c-.63-.16-1.35.19-1.96-.21.37-.88.75-1.7.87-2.28,0,.96.47,1.79,1.1,2.48Z"/>
    <path class="st67" d="M358.7,332.44l-.4-.02c.31-.68.24-1.5.64-2.22.51.93.13,1.66-.25,2.24Z"/>
    <path class="st11" d="M122.41,285.03c.24.32-.65.94-1.24.82-.4-.08-1.15-.14-1.26-1.09-.04-.31.52-.87.79-.91.35-.06,1.09.34,1.71,1.18Z"/>
    <path class="st31" d="M218.85,379.54c-.55.41-3.78,1.25-5.37,4.38-2.33-.07-.67-4.35-2.89-5.86-1.74-1.18-1.86-2.49-2.47-4.21-1.15-3.21-2.48-6.56-1.36-9.98-1.65-1.59-3.62-1.49-5.72-1.86-1.48-.25-3.12-1.73-4.3-2.49-2.54-1.63-3.07-4.9-2.75-5.61.19-.42.67-1.28,1.39-1.21l5.66.57c.87-2.04,2.14-2.69,4.07-2.77s3.44.84,4.51,2.68c.94,1.61,2.21,2.11,3.5,2.93,4.31,2.75,5.99.96,11.75,1.88,1.85.3,3.34,1.85,5.17,2.67.74-1.25,1.28-2.03,2.26-2.1s3.57-.24,3.6.97l.15,6.3c.02.87-.31,2.8-1.2,3.08l-4.2,1.34c-1.43.46-2.13,1.03-2.27,2.41-3.47,1.91-6.31,4.46-9.55,6.86Z"/>
    <path class="st31" d="M243.01,407.26c1.34-.1,2.74-.11,4.08.15-.58.37-.87.54-1.02.74-.09.21-.18.37-.26.37-4.41-.16-10.65-.81-15.03-1.5-.11-.02-.2-.21-.27-.46-.73.51-2.49.23-2.98-.46-2.33.06-6.4-.1-8.39-1.72-.07.24-.16.44-.29.47-.47.12-8.15-2.3-9.23-2.67-.11-.04-.17-.23-.22-.46.24-.55.96-.34,1.66-.15l6.84,1.82c-.26-.84.31-2.18.79-2.08,2.22.48,3.11-.96,4.64-1.48s3.26.19,3.97-2.43c1.48,1.25,2.88.62,4.07,1.15l4.05,1.79c.87,1.84,1.73,3.48,3.32,4.92-.48.68-.94.89-1.09,1.25,2.27.39,3.69.86,5.35.74Z"/>
    <path class="st31" d="M238.48,383.47c.1.8-1.55,1.1-2.15,1-.76-.12-1.36-.48-1.99-1.27l-2.87-3.63c1.33-1.56,3.69-.89,5.17-.61.67.13,2.48-.73,2.35.65-.1,1.04-.72,2.1-.5,3.86Z"/>
    <path class="st116" d="M192.73,395.51l5.05,1.86c.77.72,1.47,1.05,2.56,1.02l4.08,1.45c1.37,1,3.32,1.44,4.99,1.9l9.74,2.66c.92.37,1.01.66.29.88-1.45.39-2.62-.44-4.1-.89-9.37-2.84-18.39-5.99-27.08-9.96-.06-.35.17-.42.35-.46.28-.06.66-.07.98.08l3.14,1.46Z"/>
    <path class="st31" d="M236.67,390.73c-1.32.9-3.26.71-5.15.69l.24-3.04,4.91,2.36Z"/>
    <path class="st31" d="M204.41,399.83c-1.49-.1-3.06-.44-4.08-1.45,1.52-.05,2.9.59,4.08,1.45Z"/>
    <path class="st31" d="M197.77,397.36c-1.77-.16-3.45-1.12-5.05-1.86,1.72.21,3.81.71,5.05,1.86Z"/>
    <path class="st129" d="M307.89,399.92l-3.48,1.48-6.29,1.69c-9.7,2.6-19.24,4.36-28.86,5.68-1.91-.01-3.78.14-5.61.45h-3c-2.03.4-4.57.42-6.54,0v-.49s.55-.5.55-.5l10.31-.19c7.92-.67,15.51-1.43,23.23-3.3,6.32-1.52,12.39-2.79,18.38-5.3.54-.23,1.26.04,1.31.47Z"/>
    <path class="st82" d="M246.08,408.16l6.52.09c.13-1.31.6-1.27,1.01-.02v.99s-.5,0-.5,0c-.91.53-2.42.29-3.53.02l-6.53-.55-4-.44-1.54-.03-2.99-.47c-1.58.15-3.05-.16-4.55-.43-.88-.53-.39-.66.54-.75l9.1,1.03,6.47.56Z"/>
    <path class="st123" d="M260.65,409.23c.02.2-.18.46-.52.46l-6.03.03c-.42,0-.51-.32-.49-.5h.5s6.54.01,6.54.01Z"/>
    <path class="st123" d="M269.26,408.77c-1.81.25-3.64.44-5.61.45.07-.33.44-.52.98-.52l4.63.07Z"/>
    <path class="st123" d="M253.11,409.22v.49c-1.18.02-2.6.29-3.53-.47l3.53-.02Z"/>
    <path class="st12" d="M227.53,406.11c.95.2.9.57-.08.75-2.16-.39-4.33-.76-6.5-.58l-1.51-1.01-.29-.88,8.39,1.72Z"/>
    <polygon class="st100" points="230.51 406.57 229.97 407.32 227.45 406.86 227.53 406.11 230.51 406.57"/>
    <path class="st31" d="M243.05,408.69c-1.31-.11-2.93.31-4-.44,1.33.02,2.9-.35,4,.44Z"/>
    <path class="st31" d="M237.51,408.22c-1-.02-2.25.27-2.99-.47.99-.09,2.26-.23,2.99.47Z"/>
    <path class="st72" d="M305.97,337.32l-9.67.34c-.53.02-.91-.17-.98-.47,1.01.09,1.72-.25,2.55-.41,2.64-.48,5.37,0,8.1.53Z"/>
    <path class="st11" d="M103.82,334.69c-.8-1.28-.77-3.16-.08-4.48l.08,4.48Z"/>
    <path class="st95" d="M297.44,335.07c-1.05-.01-1.75.34-2.69-.38.97-.1,1.91-.1,2.69.38Z"/>
    <path class="st117" d="M253.61,408.23l-1.01.02.18-30.56c.52-.09.83.1.83.47v30.06Z"/>
    <path class="st69" d="M249.61,246.82c0,.18-.16.53-.52.52l-12.56-.27,13.08-.25Z"/>
    <path class="st85" d="M274.74,246.82c0,.15-.13.53-.54.52l-12.54-.27,13.08-.25Z"/>
    <path class="st103" d="M274.73,221.15c0,.15-.12.5-.52.5h-12.56c-.36,0-.51-.29-.51-.5h13.59Z"/>
    <polygon class="st132" points="249.09 221.42 236.01 221.64 236.02 221.15 249.09 221.42"/>
  </g>
</svg>
